<?xml version="1.0" encoding="UTF-8" standalone="no"?>
<!-- Created with Inkscape (http://www.inkscape.org/) -->

<svg
   width="87.352943mm"
   height="87.352936mm"
   viewBox="0 0 87.352943 87.352936"
   version="1.1"
   id="svg1"
   inkscape:version="1.3.2 (091e20e, 2023-11-25)"
   sodipodi:docname="Lake.svg"
   xmlns:inkscape="http://www.inkscape.org/namespaces/inkscape"
   xmlns:sodipodi="http://sodipodi.sourceforge.net/DTD/sodipodi-0.dtd"
   xmlns="http://www.w3.org/2000/svg"
   xmlns:svg="http://www.w3.org/2000/svg">
  <sodipodi:namedview
     id="namedview1"
     pagecolor="#ffffff"
     bordercolor="#000000"
     borderopacity="0.25"
     inkscape:showpageshadow="2"
     inkscape:pageopacity="0.0"
     inkscape:pagecheckerboard="0"
     inkscape:deskcolor="#d1d1d1"
     inkscape:document-units="mm"
     inkscape:zoom="0.78751403"
     inkscape:cx="132.69605"
     inkscape:cy="137.14041"
     inkscape:window-width="1392"
     inkscape:window-height="1027"
     inkscape:window-x="0"
     inkscape:window-y="25"
     inkscape:window-maximized="0"
     inkscape:current-layer="layer1"
     inkscape:clip-to-page="true" />
  <defs
     id="defs1">
    <inkscape:path-effect
       effect="powerclip"
       id="path-effect10"
       is_visible="true"
       lpeversion="1"
       inverse="true"
       flatten="false"
       hide_clip="false"
       message="Use fill-rule evenodd on &lt;b&gt;fill and stroke&lt;/b&gt; dialog if no flatten result after convert clip to paths." />
    <inkscape:path-effect
       effect="powerclip"
       id="path-effect9"
       is_visible="true"
       lpeversion="1"
       inverse="true"
       flatten="false"
       hide_clip="false"
       message="Use fill-rule evenodd on &lt;b&gt;fill and stroke&lt;/b&gt; dialog if no flatten result after convert clip to paths." />
    <inkscape:path-effect
       effect="powerclip"
       id="path-effect8"
       is_visible="true"
       lpeversion="1"
       inverse="true"
       flatten="false"
       hide_clip="false"
       message="Use fill-rule evenodd on &lt;b&gt;fill and stroke&lt;/b&gt; dialog if no flatten result after convert clip to paths." />
    <clipPath
       clipPathUnits="userSpaceOnUse"
       id="clipPath7">
      <path
         style="display:none;fill:#00ccff;fill-opacity:1;stroke:none;stroke-width:0.264583;stroke-opacity:1"
         d="m 119.94231,62.490951 c -1.86545,-3.701704 -5.62329,-8.184203 -9.74322,-7.727376 -3.72011,0.412493 -3.31777,8.537038 -7.05542,8.735293 -4.112078,0.218114 -4.625399,-8.991169 -8.735299,-8.735293 -3.823277,0.238027 -3.232155,8.833236 -7.055432,9.071266 -4.584118,0.285395 -5.170543,-10.174825 -9.74321,-9.743213 -3.370778,0.318167 -2.329246,8.246179 -5.711539,8.399323 -4.053877,0.183552 -3.683032,-9.074259 -7.727376,-9.40724 -3.559397,-0.293055 -4.525388,7.5433 -8.063349,7.05543 -3.046341,-0.420079 -2.129441,-6.733572 -5.039593,-7.727376 -2.58082,-0.88134 -6.147176,0.46509 -7.727373,2.687783 -2.984987,4.198652 0,15.454752 0,15.454752 l 76.937781,2.015836 c 0,0 1.17685,-7.077236 -0.33597,-10.079185 z"
         id="path7"
         sodipodi:nodetypes="sssssssssssccs" />
      <path
         id="lpe_path-effect8"
         style="fill:#00ccff;fill-opacity:1;stroke:none;stroke-width:0.264583;stroke-opacity:1"
         class="powerclip"
         d="M 7.430995,33.972849 H 133.8261 V 119.7861 H 7.430995 Z" />
    </clipPath>
    <clipPath
       clipPathUnits="userSpaceOnUse"
       id="clipPath8">
      <path
         style="display:none;fill:#00ccff;fill-opacity:1;stroke:none;stroke-width:0.264583;stroke-opacity:1"
         d="m 119.94231,62.490951 c -1.86545,-3.701704 -5.62329,-8.184203 -9.74322,-7.727376 -3.72011,0.412493 -3.31777,8.537038 -7.05542,8.735293 -4.112078,0.218114 -4.625399,-8.991169 -8.735299,-8.735293 -3.823277,0.238027 -3.232155,8.833236 -7.055432,9.071266 -4.584118,0.285395 -5.170543,-10.174825 -9.74321,-9.743213 -3.370778,0.318167 -2.329246,8.246179 -5.711539,8.399323 -4.053877,0.183552 -3.683032,-9.074259 -7.727376,-9.40724 -3.559397,-0.293055 -4.525388,7.5433 -8.063349,7.05543 -3.046341,-0.420079 -2.129441,-6.733572 -5.039593,-7.727376 -2.58082,-0.88134 -6.147176,0.46509 -7.727373,2.687783 -2.984987,4.198652 0,15.454752 0,15.454752 l 76.937781,2.015836 c 0,0 1.17685,-7.077236 -0.33597,-10.079185 z"
         id="path8"
         sodipodi:nodetypes="sssssssssssccs" />
      <path
         id="lpe_path-effect9"
         style="fill:#00ccff;fill-opacity:1;stroke:none;stroke-width:0.264583;stroke-opacity:1"
         class="powerclip"
         d="M 38.676472,49.091625 H 136.36538 V 122.59049 H 38.676472 Z" />
    </clipPath>
    <clipPath
       clipPathUnits="userSpaceOnUse"
       id="clipath_lpe_path-effect10">
      <path
         style="display:none;fill:#00ccff;fill-opacity:1;stroke:none;stroke-width:0.264583;stroke-opacity:1"
         d="m 119.94231,62.490951 c -1.86545,-3.701704 -5.62329,-8.184203 -9.74322,-7.727376 -3.72011,0.412493 -3.31777,8.537038 -7.05542,8.735293 -4.112078,0.218114 -4.625399,-8.991169 -8.735299,-8.735293 -3.823277,0.238027 -3.232155,8.833236 -7.055432,9.071266 -4.584118,0.285395 -5.170543,-10.174825 -9.74321,-9.743213 -3.370778,0.318167 -2.329246,8.246179 -5.711539,8.399323 -4.053877,0.183552 -3.683032,-9.074259 -7.727376,-9.40724 -3.559397,-0.293055 -4.525388,7.5433 -8.063349,7.05543 -3.046341,-0.420079 -2.129441,-6.733572 -5.039593,-7.727376 -2.58082,-0.88134 -6.147176,0.46509 -7.727373,2.687783 -2.984987,4.198652 0,15.454752 0,15.454752 l 76.937781,2.015836 c 0,0 1.17685,-7.077236 -0.33597,-10.079185 z"
         id="path10"
         sodipodi:nodetypes="sssssssssssccs" />
      <path
         id="lpe_path-effect10"
         style="fill:#00ccff;fill-opacity:1;stroke:none;stroke-width:0.264583;stroke-opacity:1"
         class="powerclip"
         d="M 38.676472,49.091625 H 136.36538 V 122.59049 H 38.676472 Z" />
    </clipPath>
    <clipPath
       clipPathUnits="userSpaceOnUse"
       id="clipPath12">
      <rect
         style="fill:#d5f6ff;fill-opacity:1;stroke:none;stroke-width:0.326086;stroke-opacity:1"
         id="rect12"
         width="134.72511"
         height="86.009048"
         x="13.438915"
         y="68.874435"
         d="M 13.438915,68.874435 H 148.16403 V 154.88348 H 13.438915 Z" />
    </clipPath>
    <clipPath
       clipPathUnits="userSpaceOnUse"
       id="clipPath13">
      <rect
         style="fill:#d5f6ff;fill-opacity:1;stroke:none;stroke-width:0.326086;stroke-opacity:1"
         id="rect13"
         width="134.72511"
         height="86.009048"
         x="13.438915"
         y="68.874435"
         d="M 13.438915,68.874435 H 148.16403 V 154.88348 H 13.438915 Z" />
    </clipPath>
    <clipPath
       clipPathUnits="userSpaceOnUse"
       id="clipPath15">
      <rect
         style="fill:#0055d4;fill-opacity:1;stroke:none;stroke-width:0.264583;stroke-opacity:1"
         id="rect16"
         width="112.5509"
         height="111.20701"
         x="43.3405"
         y="22.174208" />
    </clipPath>
    <clipPath
       clipPathUnits="userSpaceOnUse"
       id="clipPath16">
      <rect
         style="fill:#0055d4;fill-opacity:1;stroke:none;stroke-width:0.264583;stroke-opacity:1"
         id="rect17"
         width="112.5509"
         height="111.20701"
         x="43.3405"
         y="22.174208" />
    </clipPath>
    <clipPath
       clipPathUnits="userSpaceOnUse"
       id="clipPath17">
      <rect
         style="fill:#0055d4;fill-opacity:1;stroke:none;stroke-width:0.264583;stroke-opacity:1"
         id="rect18"
         width="112.5509"
         height="111.20701"
         x="43.3405"
         y="22.174208"
         d="M 43.3405,22.174208 H 155.8914 V 133.38122 H 43.3405 Z" />
    </clipPath>
    <clipPath
       clipPathUnits="userSpaceOnUse"
       id="clipPath18">
      <rect
         style="fill:#0055d4;fill-opacity:1;stroke:none;stroke-width:0.264583;stroke-opacity:1"
         id="rect19"
         width="112.5509"
         height="111.20701"
         x="43.3405"
         y="22.174208"
         d="M 43.3405,22.174208 H 155.8914 V 133.38122 H 43.3405 Z" />
    </clipPath>
    <clipPath
       clipPathUnits="userSpaceOnUse"
       id="clipPath20">
      <rect
         style="opacity:0.310954;fill:#2ad4ff;fill-opacity:1;stroke:none;stroke-width:0.229037;stroke-opacity:1"
         id="rect21"
         width="87.352943"
         height="113.22285"
         x="44.012444"
         y="19.822397" />
    </clipPath>
    <clipPath
       clipPathUnits="userSpaceOnUse"
       id="clipPath21">
      <rect
         style="opacity:0.310954;fill:#2ad4ff;fill-opacity:1;stroke:none;stroke-width:0.229037;stroke-opacity:1"
         id="rect22"
         width="87.352943"
         height="113.22285"
         x="44.012444"
         y="19.822397" />
    </clipPath>
    <clipPath
       clipPathUnits="userSpaceOnUse"
       id="clipPath22">
      <rect
         style="opacity:0.310954;fill:#2ad4ff;fill-opacity:1;stroke:none;stroke-width:0.229037;stroke-opacity:1"
         id="rect23"
         width="87.352943"
         height="113.22285"
         x="44.012444"
         y="19.822397" />
    </clipPath>
    <clipPath
       clipPathUnits="userSpaceOnUse"
       id="clipPath23">
      <rect
         style="opacity:0.310954;fill:#2ad4ff;fill-opacity:1;stroke:none;stroke-width:0.229037;stroke-opacity:1"
         id="rect24"
         width="87.352943"
         height="113.22285"
         x="44.012444"
         y="19.822397"
         d="M 44.012444,19.822397 H 131.36539 V 133.04524 H 44.012444 Z" />
    </clipPath>
    <clipPath
       clipPathUnits="userSpaceOnUse"
       id="clipPath24">
      <rect
         style="opacity:0.310954;fill:#2ad4ff;fill-opacity:1;stroke:none;stroke-width:0.229037;stroke-opacity:1"
         id="rect25"
         width="87.352943"
         height="113.22285"
         x="44.012444"
         y="19.822397"
         d="M 44.012444,19.822397 H 131.36539 V 133.04524 H 44.012444 Z" />
    </clipPath>
  </defs>
  <g
     inkscape:label="Layer 1"
     inkscape:groupmode="layer"
     id="layer1"
     transform="translate(-69.882354,-31.581446)">
    <g
       id="g27"
       transform="translate(25.86991,1.3438914)">
      <path
         style="fill:#37c837;stroke-width:0.264583"
         id="rect1"
         width="87.688911"
         height="63.498867"
         x="43.676472"
         y="54.091625"
         clip-path="url(#clipPath24)"
         sodipodi:type="rect"
         d="M 43.676472,54.091625 H 131.36538 V 117.59049 H 43.676472 Z"
         inkscape:path-effect="#path-effect9;#path-effect10" />
      <path
         style="fill:#0044aa;stroke:none;stroke-width:0.264583;stroke-opacity:1"
         d="m 44.684389,55.099547 c 9.715001,2.493573 5.389884,19.325882 8.399322,28.893664 2.199614,6.993144 2.315323,15.238025 7.055429,20.830319 3.531169,4.16601 9.135513,6.45666 14.446832,7.72737 10.131644,2.42394 21.810774,3.74531 31.245478,-0.67194 4.16954,-1.95214 7.08695,-6.26083 9.07126,-10.41516 3.33299,-6.977917 2.72407,-15.224457 4.03168,-22.846155 1.0367,-6.042642 0.34883,-12.625913 3.02375,-18.142532 1.45276,-2.996097 5.88183,-4.16875 6.71946,-7.391402 0.86788,-3.339031 -2.35181,-10.079186 -2.35181,-10.079186 L 36.285066,38.972849 12.430995,62.826923 38.300906,61.48303 c 0,0 3.468761,-7.131612 6.383483,-6.383483 z"
         id="path1"
         sodipodi:nodetypes="sssssssssccccs"
         clip-path="url(#clipPath23)"
         inkscape:original-d="m 44.684389,55.099547 c 9.715001,2.493573 5.389884,19.325882 8.399322,28.893664 2.199614,6.993144 2.315323,15.238025 7.055429,20.830319 3.531169,4.16601 9.135513,6.45666 14.446832,7.72737 10.131644,2.42394 21.810774,3.74531 31.245478,-0.67194 4.16954,-1.95214 7.08695,-6.26083 9.07126,-10.41516 3.33299,-6.977917 2.72407,-15.224457 4.03168,-22.846155 1.0367,-6.042642 0.34883,-12.625913 3.02375,-18.142532 1.45276,-2.996097 5.88183,-4.16875 6.71946,-7.391402 0.86788,-3.339031 -2.35181,-10.079186 -2.35181,-10.079186 L 36.285066,38.972849 12.430995,62.826923 38.300906,61.48303 c 0,0 3.468761,-7.131612 6.383483,-6.383483 z"
         inkscape:path-effect="#path-effect8" />
      <rect
         style="fill:#d5f6ff;fill-opacity:1;stroke:none;stroke-width:0.345763;stroke-opacity:1"
         id="rect14"
         width="88.360855"
         height="40.316742"
         x="43.340496"
         y="30.237555"
         clip-path="url(#clipPath22)" />
      <path
         style="fill:#37c837;fill-opacity:1;stroke:none;stroke-width:0.264583;stroke-opacity:1"
         d="m 51.933012,70.218326 c 1.556879,-4.017244 0.839747,-9.540863 -2.015837,-12.766969 -1.080767,-1.221 -3.100334,-1.046611 -4.703619,-1.343893 -8.733092,-1.619295 -21.803342,-9.864166 -26.541855,-2.35181 -4.580307,7.261539 13.10294,22.174208 13.10294,22.174208 0,0 5.412164,-8.742096 9.071268,-7.391402 1.174625,0.433592 -0.130781,2.734778 0.671947,3.695702 1.226887,1.468673 3.485694,2.316917 5.375563,2.015837 2.124484,-0.338457 4.262206,-2.025767 5.039593,-4.031673 z"
         id="path14"
         sodipodi:nodetypes="sssscssss"
         clip-path="url(#clipPath21)" />
      <path
         style="opacity:0.310954;fill:#55ddff;fill-opacity:1;stroke:none;stroke-width:0.264583;stroke-opacity:1"
         d="m 55.099547,70.697075 c -1.844834,-3.810389 3.503513,-10.364594 7.727376,-10.079183 2.702537,0.182613 1.467753,6.18172 4.031673,7.05543 4.134197,1.408815 7.960828,-6.448408 12.095025,-5.039593 1.70928,0.582473 0.979218,4.119053 2.687783,4.70362 3.325546,1.1378 6.268508,-4.561089 9.743212,-4.031676 1.729396,0.263494 2.316123,3.017487 4.031673,3.359729 3.334831,0.665279 6.367021,-3.429997 9.743211,-3.023756 2.59335,0.312046 4.19774,4.712689 6.71946,4.031676 2.46783,-0.666461 1.19092,-6.209127 3.6957,-6.719459 1.9538,-0.398074 2.8926,2.861438 4.70362,3.695703 0.51866,0.238924 1.29628,-0.08706 1.67986,0.335973 1.51205,1.667535 2.19479,5.061771 0.67195,6.719456 -44.795872,-1.227654 -43.609309,-1.575521 -67.530543,-1.00792 z"
         id="path26"
         sodipodi:nodetypes="cssssssssssscc" />
      <path
         style="opacity:0.310954;fill:#5fd3bc;fill-opacity:1;stroke:none;stroke-width:0.264583;stroke-opacity:1"
         d="m 51.739818,70.361102 c -1.844834,-3.810389 3.503513,-10.364594 7.727376,-10.079183 2.702537,0.182613 1.467753,6.18172 4.031673,7.05543 4.134197,1.408815 7.960828,-6.448408 12.095025,-5.039593 1.70928,0.582473 0.979218,4.119053 2.687783,4.70362 3.325546,1.1378 6.268508,-4.561089 9.743212,-4.031676 1.729396,0.263494 2.316123,3.017487 4.031673,3.359729 3.334831,0.665279 6.36702,-3.429997 9.74321,-3.023756 2.59335,0.312046 4.19774,4.712689 6.71946,4.031676 2.46783,-0.666461 1.19092,-6.209127 3.6957,-6.719459 1.9538,-0.398074 2.8926,2.861438 4.70362,3.695703 0.51866,0.238924 1.29628,-0.08706 1.67986,0.335973 1.51205,1.667535 2.19479,5.061771 0.67195,6.719456 -44.795871,-1.227654 -43.609308,-1.575521 -67.530542,-1.00792 z"
         id="path25"
         sodipodi:nodetypes="cssssssssssscc" />
      <path
         style="fill:#37c837;fill-opacity:1;stroke:none;stroke-width:0.264583;stroke-opacity:1"
         d="m 119.60633,71.898189 c -0.75522,-2.847575 0.59875,-5.885065 1.34389,-8.735293 0.72606,-2.777215 0.92682,-6.103015 3.02376,-8.063349 1.70823,-1.596948 4.38361,-1.905898 6.71946,-2.015836 3.99289,-0.187926 10.41515,1.34389 11.75905,2.351809 1.34389,1.007917 15.6026,15.416602 11.75905,23.182125 -3.83906,7.756438 -17.43038,7.742192 -25.53394,4.70362 -4.55273,-1.707125 -7.82481,-6.723292 -9.07127,-11.423076 z"
         id="path19"
         sodipodi:nodetypes="ssssssss"
         clip-path="url(#clipPath20)" />
    </g>
  </g>
</svg>
